<?xml version="1.0" encoding="UTF-8"?>
<!DOCTYPE svg PUBLIC "-//W3C//DTD SVG 1.1//EN" "http://www.w3.org/Graphics/SVG/1.1/DTD/svg11.dtd">
<svg xmlns="http://www.w3.org/2000/svg" version="1.1" width="1024px" height="1024px" style="shape-rendering:geometricPrecision; text-rendering:geometricPrecision; image-rendering:optimizeQuality; fill-rule:evenodd; clip-rule:evenodd" xmlns:xlink="http://www.w3.org/1999/xlink">
<g><path style="opacity:1" fill="#fefefe" d="M -0.5,-0.5 C 340.833,-0.5 682.167,-0.5 1023.5,-0.5C 1023.5,340.833 1023.5,682.167 1023.5,1023.5C 682.167,1023.5 340.833,1023.5 -0.5,1023.5C -0.5,682.167 -0.5,340.833 -0.5,-0.5 Z"/></g>
<g><path style="opacity:1" fill="#980f12" d="M 379.5,326.5 C 382.649,326.211 385.649,326.711 388.5,328C 398.749,338.68 407.915,350.18 416,362.5C 422.333,369.5 428.667,376.5 435,383.5C 440.574,396.223 446.908,408.556 454,420.5C 461.333,428.5 468.667,436.5 476,444.5C 476.486,449.992 473.986,451.825 468.5,450C 458.797,443.97 449.964,436.803 442,428.5C 435.25,417.331 428.25,406.331 421,395.5C 422.492,405.487 424.325,415.487 426.5,425.5C 414.131,422.544 401.964,418.877 390,414.5C 379.295,419.193 370.295,426.193 363,435.5C 353.3,449.54 342.467,462.706 330.5,475C 327.833,477 325.167,479 322.5,481C 320.598,482.301 318.598,482.968 316.5,483C 325.616,470.216 335.116,457.716 345,445.5C 346.225,438.245 346.892,430.911 347,423.5C 350.276,417.892 353.943,412.558 358,407.5C 361.546,402.082 364.213,396.415 366,390.5C 345.07,408.093 324.736,426.427 305,445.5C 302.787,448.095 300.953,450.928 299.5,454C 299.905,454.945 300.572,455.612 301.5,456C 305.822,456.245 309.822,457.412 313.5,459.5C 312.687,460.814 311.687,461.981 310.5,463C 294.215,474.951 278.215,487.284 262.5,500C 248.276,508.445 243.11,504.612 247,488.5C 251.853,484.737 256.52,480.737 261,476.5C 270.683,455.803 280.35,435.136 290,414.5C 304.536,400.962 319.369,387.795 334.5,375C 350.073,359.264 365.073,343.098 379.5,326.5 Z"/></g>
<g><path style="opacity:1" fill="#981012" d="M 623.5,486.5 C 623.672,487.492 623.338,488.158 622.5,488.5C 609.25,475.082 594.417,463.749 578,454.5C 578.672,465.874 579.672,477.208 581,488.5C 565.234,506.356 549.234,524.022 533,541.5C 528.281,546.722 523.115,551.388 517.5,555.5C 517.167,555.167 516.833,554.833 516.5,554.5C 525.828,537.173 535.661,520.173 546,503.5C 548.947,498.289 551.28,492.955 553,487.5C 518.6,522.065 484.767,557.065 451.5,592.5C 451.167,592.5 450.833,592.5 450.5,592.5C 465.531,572.956 480.031,552.956 494,532.5C 495.027,528.82 494.194,525.653 491.5,523C 506.248,500.42 521.582,478.254 537.5,456.5C 537.333,456.167 537.167,455.833 537,455.5C 521.5,470.333 506,485.167 490.5,500C 487.971,502.029 485.304,503.862 482.5,505.5C 481.977,502.491 482.477,499.491 484,496.5C 487.519,489.621 490.852,482.621 494,475.5C 495.318,472.57 495.985,469.57 496,466.5C 490.074,470.421 484.741,475.088 480,480.5C 462.366,499.802 444.366,518.802 426,537.5C 424.247,540.005 422.747,542.671 421.5,545.5C 423.149,547.65 424.982,549.65 427,551.5C 427.982,552.759 428.315,554.092 428,555.5C 413.041,566.453 397.541,576.62 381.5,586C 367.5,600 353.5,614 339.5,628C 338.833,628.667 338.167,628.667 337.5,628C 349.454,611.373 360.621,594.206 371,576.5C 372.833,574.667 374.667,572.833 376.5,571C 384.112,567.861 391.446,564.194 398.5,560C 413.651,543.203 424.818,524.037 432,502.5C 433.944,498.89 436.277,495.557 439,492.5C 456.333,476.5 473.667,460.5 491,444.5C 514.712,413.576 538.546,382.743 562.5,352C 564.635,351.365 566.635,351.699 568.5,353C 590.698,375.53 612.531,398.364 634,421.5C 639,428.167 644,434.833 649,441.5C 661.502,461.841 674.502,481.841 688,501.5C 690.167,503.667 692.333,505.833 694.5,508C 701.85,511.444 708.85,515.444 715.5,520C 723.333,528.5 731.167,537 739,545.5C 739.667,547.5 739.667,549.5 739,551.5C 737.951,552.517 736.784,552.684 735.5,552C 725.106,545.607 715.273,538.44 706,530.5C 705.825,534.211 705.325,537.878 704.5,541.5C 697.779,534.609 690.612,528.276 683,522.5C 684.606,528.732 687.106,534.732 690.5,540.5C 690.167,540.833 689.833,541.167 689.5,541.5C 679.77,534.942 670.77,527.442 662.5,519C 666.762,518.752 670.929,519.252 675,520.5C 672.9,512.609 669.9,504.942 666,497.5C 657.667,490.5 649.333,483.5 641,476.5C 639.161,469.275 637.827,461.942 637,454.5C 631.667,448.5 626.333,442.5 621,436.5C 616.634,431.799 611.967,427.466 607,423.5C 606.274,428.239 606.607,432.905 608,437.5C 613.679,453.703 618.846,470.036 623.5,486.5 Z"/></g>
<g><path style="opacity:1" fill="#981113" d="M 388.5,428.5 C 391.602,428.154 394.435,428.821 397,430.5C 409.244,449.077 421.078,467.911 432.5,487C 432.167,487.5 431.833,488 431.5,488.5C 428.696,486.862 426.029,485.029 423.5,483C 416.636,475.802 409.47,468.968 402,462.5C 398.119,472.595 393.452,482.261 388,491.5C 378.87,502.299 369.37,512.799 359.5,523C 357.911,524.543 356.577,524.543 355.5,523C 356,521.5 356.5,520 357,518.5C 363.102,507.962 368.935,497.295 374.5,486.5C 374.333,486.167 374.167,485.833 374,485.5C 364.579,492.25 355.746,499.75 347.5,508C 343.333,510.833 339.167,513.667 335,516.5C 334.83,514.155 335.163,511.821 336,509.5C 339.667,503.167 343.333,496.833 347,490.5C 348.314,487.911 348.981,485.244 349,482.5C 330.906,497.257 313.406,512.757 296.5,529C 292.333,531.833 288.167,534.667 284,537.5C 283.685,536.092 284.018,534.759 285,533.5C 311.727,502.102 339.894,471.935 369.5,443C 375.734,437.92 382.067,433.086 388.5,428.5 Z"/></g>
<g><path style="opacity:1" fill="#981113" d="M 102.5,691.5 C 134.611,667.597 166.611,643.43 198.5,619C 212.494,606.717 223.66,592.551 232,576.5C 222.926,580.952 214.093,585.786 205.5,591C 195.769,601.4 185.436,611.067 174.5,620C 173.668,620.688 173.002,620.521 172.5,619.5C 177.59,610.316 183.423,601.649 190,593.5C 192.067,585.322 193.067,576.989 193,568.5C 198.268,559.36 202.768,549.86 206.5,540C 184.271,557.541 163.104,576.708 143,597.5C 140.665,600.166 138.831,603.166 137.5,606.5C 141.634,608.118 145.968,608.951 150.5,609C 125.152,633.191 98.4858,655.691 70.5,676.5C 70.1667,676.333 69.8333,676.167 69.5,676C 71.0488,674.786 72.2155,673.286 73,671.5C 86.3333,658.833 99.6667,646.167 113,633.5C 118.268,622.635 122.102,611.302 124.5,599.5C 120.183,600.962 116.183,603.128 112.5,606C 104.114,612.72 95.4472,619.053 86.5,625C 80.8353,629.493 76.5019,634.993 73.5,641.5C 70.2211,642.473 67.2211,643.973 64.5,646C 50.9712,659.863 37.1379,673.363 23,686.5C 22.6848,685.092 23.0181,683.759 24,682.5C 33.0904,669.987 42.4238,657.654 52,645.5C 58.6667,634.167 65.3333,622.833 72,611.5C 73.8333,610.333 75.6667,609.167 77.5,608C 86.5374,606.992 94.5374,603.659 101.5,598C 112.53,587.304 123.197,576.304 133.5,565C 149.833,551.333 166.167,537.667 182.5,524C 194.192,511.309 206.192,498.976 218.5,487C 220.5,486.333 222.5,486.333 224.5,487C 227.295,488.793 229.795,490.96 232,493.5C 238.85,503.869 245.184,514.536 251,525.5C 258.111,533.946 264.445,542.946 270,552.5C 270.667,558.833 270.667,565.167 270,571.5C 269.548,574.149 268.714,576.649 267.5,579C 263.221,580.473 259.221,582.473 255.5,585C 206.537,623.477 155.537,658.977 102.5,691.5 Z"/></g>
<g><path style="opacity:1" fill="#ca8182" d="M 623.5,486.5 C 624.776,487.386 624.776,488.386 623.5,489.5C 622.893,489.376 622.56,489.043 622.5,488.5C 623.338,488.158 623.672,487.492 623.5,486.5 Z"/></g>
<g><path style="opacity:1" fill="#981213" d="M 585.5,501.5 C 604.581,500.787 617.748,509.121 625,526.5C 627.531,533.091 629.864,539.758 632,546.5C 636.271,556.766 643.771,563.6 654.5,567C 663.951,570.037 672.951,574.037 681.5,579C 686.957,586.075 691.79,593.575 696,601.5C 697.833,603.333 699.667,605.167 701.5,607C 717.34,617.419 733.007,628.086 748.5,639C 730.23,631.365 712.564,622.365 695.5,612C 663.227,590.725 631.227,569.058 599.5,547C 596.394,545.364 593.227,543.864 590,542.5C 574.472,556.361 558.639,569.861 542.5,583C 518.34,599.914 494.007,616.58 469.5,633C 468.833,633.667 468.167,633.667 467.5,633C 487.682,614.338 508.515,596.504 530,579.5C 529.588,572.874 531.255,566.874 535,561.5C 548.241,545.349 561.241,529.016 574,512.5C 577.729,508.602 581.562,504.935 585.5,501.5 Z"/></g>
<g><path style="opacity:1" fill="#981113" d="M 804.5,505.5 C 808.511,505.502 812.178,506.668 815.5,509C 828.5,519.333 841.5,529.667 854.5,540C 866.475,551.642 878.142,563.642 889.5,576C 896.024,581.358 902.69,586.525 909.5,591.5C 913.087,595.667 915.92,600.334 918,605.5C 923.113,609.312 927.946,613.479 932.5,618C 939.743,622.814 947.743,625.48 956.5,626C 958.949,626.725 961.283,627.725 963.5,629C 976.522,637.845 989.189,647.178 1001.5,657C 1000.5,657.667 999.5,657.667 998.5,657C 985.833,651 973.167,645 960.5,639C 955.557,639.751 950.557,640.084 945.5,640C 925.461,629.654 906.795,617.321 889.5,603C 892.72,602.284 895.72,601.117 898.5,599.5C 896.684,597.183 894.684,595.016 892.5,593C 877.42,582.377 862.254,571.877 847,561.5C 846.333,562.167 846.333,562.833 847,563.5C 858.727,577.286 869.227,591.952 878.5,607.5C 878.333,607.833 878.167,608.167 878,608.5C 873.885,606.052 870.052,603.219 866.5,600C 844.25,578.085 822.417,555.918 801,533.5C 787.571,544.259 774.737,555.759 762.5,568C 759.623,569.127 756.623,569.794 753.5,570C 741.2,580.631 729.2,591.631 717.5,603C 710.043,603.141 708.543,599.975 713,593.5C 728.772,577.282 742.105,559.282 753,539.5C 755.205,536.96 757.705,534.793 760.5,533C 767.277,529.741 774.277,527.074 781.5,525C 789.358,518.635 797.025,512.135 804.5,505.5 Z"/></g>
<g><path style="opacity:1" fill="#9a1716" d="M 603.5,565.5 C 606.32,565.248 608.986,565.748 611.5,567C 616.294,573.417 620.461,580.25 624,587.5C 636.5,598.667 649,609.833 661.5,621C 662.877,622.973 664.043,624.806 665,626.5C 644.167,613 623.333,599.5 602.5,586C 600.833,585.333 599.167,585.333 597.5,586C 584.833,594.667 572.167,603.333 559.5,612C 548.167,618.333 536.833,624.667 525.5,631C 513.167,641.333 500.833,651.667 488.5,662C 475.864,668.149 463.53,674.483 451.5,681C 454.616,677.282 458.282,674.282 462.5,672C 471.657,667.588 480.657,662.922 489.5,658C 498.463,647.368 507.797,637.035 517.5,627C 522.167,623.667 526.833,620.333 531.5,617C 541.485,612.678 550.818,607.345 559.5,601C 574.054,588.908 588.72,577.074 603.5,565.5 Z"/></g>
<g><path style="opacity:1" fill="#9f2321" d="M 789.5,563.5 C 790.525,563.897 790.692,564.563 790,565.5C 774.062,583.44 757.395,600.774 740,617.5C 739.333,616.833 739.333,616.167 740,615.5C 755.299,597.034 771.799,579.7 789.5,563.5 Z"/></g>
<g><path style="opacity:1" fill="#981213" d="M 374.5,680.5 C 343.906,661.416 314.239,640.916 285.5,619C 280.877,616.032 276.044,613.532 271,611.5C 254.875,623.612 238.708,635.779 222.5,648C 213.333,653.833 204.167,659.667 195,665.5C 194.833,665.167 194.667,664.833 194.5,664.5C 203.884,653.948 214.05,644.281 225,635.5C 224.807,630.648 226.14,626.315 229,622.5C 240.333,609.833 251.667,597.167 263,584.5C 268.994,579.142 275.827,577.975 283.5,581C 288.895,582.446 293.395,585.279 297,589.5C 301.252,597.922 304.918,606.588 308,615.5C 310.245,620.997 313.245,625.997 317,630.5C 336.359,647.032 355.526,663.698 374.5,680.5 Z"/></g>
<g><path style="opacity:1" fill="#bd6465" d="M 450.5,592.5 C 450.833,592.5 451.167,592.5 451.5,592.5C 450.207,594.296 448.707,595.963 447,597.5C 447.077,595.228 448.243,593.562 450.5,592.5 Z"/></g>
<g><path style="opacity:1" fill="#9c1c1a" d="M 788.5,597.5 C 792.14,598.15 795.473,599.65 798.5,602C 805.167,607.333 811.833,612.667 818.5,618C 810.272,614.899 801.938,611.733 793.5,608.5C 783.378,613.394 773.711,619.061 764.5,625.5C 763.479,624.998 763.312,624.332 764,623.5C 772.005,614.662 780.172,605.995 788.5,597.5 Z"/></g>
<g><path style="opacity:1" fill="#9a1817" d="M 279.5,626.5 C 281.655,626.372 283.655,626.872 285.5,628C 289.208,631.91 292.042,636.41 294,641.5C 305.117,650.983 315.95,660.816 326.5,671C 324.402,670.968 322.402,670.301 320.5,669C 305.872,659.201 290.872,650.035 275.5,641.5C 264.539,648.652 253.539,655.819 242.5,663C 236.5,666 230.5,669 224.5,672C 215.576,678.712 206.743,685.546 198,692.5C 202.893,684.58 209.059,677.413 216.5,671C 225.866,665.32 235.199,659.654 244.5,654C 255.779,644.207 267.446,635.04 279.5,626.5 Z"/></g>
<g><path style="opacity:1" fill="#c98081" d="M 374.5,680.5 C 375.756,680.461 376.756,680.961 377.5,682C 376.002,682.585 375.002,682.085 374.5,680.5 Z"/></g>
<g><path style="opacity:1" fill="#c06867" d="M 102.5,691.5 C 101.746,693.446 100.412,694.279 98.5,694C 99.4709,692.519 100.804,691.685 102.5,691.5 Z"/></g>
</svg>
